<svg xmlns="http://www.w3.org/2000/svg" xmlns:xlink="http://www.w3.org/1999/xlink" xmlns:inkscape="http://www.inkscape.org/namespaces/inkscape" version="1.1" width="792" height="396" viewBox="0 0 792 396">
<defs>
<clipPath id="clip_0">
<path transform="matrix(1,0,0,-1,0,396)" d="M51.21 48.06H761.55258V379.55427H51.21Z"/>
</clipPath>
<g id="font_1_48">
<path transform="matrix(.001,0,0,.001,0,0)" d="M318 664C267 664 229 639 203 589 177 539 165 464 165 364 165 264 177 189 203 139 229 89 267 64 318 64 369 64 407 89 433 139 458 189 471 264 471 364 471 464 458 539 433 589 407 639 369 664 318 664M318 742C399 742 461 709 505 645 548 580 570 486 570 364 570 241 548 147 505 83 461 19 399-13 318-13 236-13 173 19 130 83 87 147 66 241 66 364 66 486 87 580 130 645 173 709 236 742 318 742"/>
</g>
<clipPath id="clip_2">
<path transform="matrix(1,0,0,-1,0,396)" d="M51.21 48.06H761.55258V379.55427H51.21Z"/>
</clipPath>
<g id="font_1_53">
<path transform="matrix(.001,0,0,.001,0,0)" d="M108 729H495V646H198V467C212 472 227 476 241 478 255 480 270 482 284 482 365 482 429 459 477 415 525 370 549 310 549 234 549 155 524 94 475 51 426 8 357-13 269-13 238-13 207-10 175-6 143-1 111 6 77 17V116C106 100 136 88 168 80 199 72 232 69 267 69 323 69 368 83 401 113 433 143 450 183 450 234 450 284 433 324 401 354 368 384 323 399 267 399 241 399 214 396 188 390 162 384 135 375 108 363V729"/>
</g>
<clipPath id="clip_3">
<path transform="matrix(1,0,0,-1,0,396)" d="M51.21 48.06H761.55258V379.55427H51.21Z"/>
</clipPath>
<g id="font_1_49">
<path transform="matrix(.001,0,0,.001,0,0)" d="M124 83H285V639L110 604V694L284 729H383V83H544V0H124V83"/>
</g>
<clipPath id="clip_4">
<path transform="matrix(1,0,0,-1,0,396)" d="M51.21 48.06H761.55258V379.55427H51.21Z"/>
</clipPath>
<clipPath id="clip_5">
<path transform="matrix(1,0,0,-1,0,396)" d="M51.21 48.06H761.55258V379.55427H51.21Z"/>
</clipPath>
<g id="font_1_50">
<path transform="matrix(.001,0,0,.001,0,0)" d="M192 83H536V0H73V83C110 121 161 173 226 239 290 304 331 346 348 365 380 400 402 430 414 455 426 479 433 504 433 528 433 566 419 598 392 622 365 646 330 659 286 659 255 659 222 653 188 643 154 632 117 616 78 594V694C118 710 155 722 189 730 223 738 255 742 284 742 359 742 419 723 464 685 509 647 532 597 532 534 532 504 526 475 515 449 504 422 484 390 454 354 446 344 420 317 376 272 332 227 271 164 192 83"/>
</g>
<clipPath id="clip_6">
<path transform="matrix(1,0,0,-1,0,396)" d="M51.21 48.06H761.55258V379.55427H51.21Z"/>
</clipPath>
<clipPath id="clip_7">
<path transform="matrix(1,0,0,-1,0,396)" d="M51.21 48.06H761.55258V379.55427H51.21Z"/>
</clipPath>
<g id="font_1_51">
<path transform="matrix(.001,0,0,.001,0,0)" d="M406 393C453 383 490 362 516 330 542 298 556 258 556 212 556 140 531 84 482 45 432 6 362-13 271-13 240-13 208-10 176-4 144 1 110 10 76 22V117C103 101 133 89 166 81 198 73 232 69 268 69 330 69 377 81 409 105 441 129 458 165 458 212 458 254 443 288 413 312 383 336 341 349 287 349H202V430H291C339 430 376 439 402 459 428 478 441 506 441 543 441 580 427 609 401 629 374 649 336 659 287 659 260 659 231 656 200 650 169 644 135 635 98 623V711C135 721 170 729 203 734 235 739 266 742 296 742 370 742 429 725 473 691 517 657 539 611 539 553 539 513 527 479 504 451 481 423 448 403 406 393"/>
</g>
<clipPath id="clip_8">
<path transform="matrix(1,0,0,-1,0,396)" d="M51.21 48.06H761.55258V379.55427H51.21Z"/>
</clipPath>
<g id="font_1_71">
<path transform="matrix(.001,0,0,.001,0,0)" d="M595 104V300H434V381H693V68C655 40 613 20 567 7 521-6 472-13 420-13 306-13 216 20 152 86 88 152 56 245 56 364 56 482 88 575 152 642 216 708 306 742 420 742 467 742 512 736 555 724 598 712 638 695 674 673V568C637 598 598 621 557 637 516 653 473 661 428 661 338 661 271 636 227 586 182 536 160 462 160 364 160 265 182 191 227 141 271 91 338 67 428 67 462 67 493 70 521 76 549 82 573 91 595 104"/>
</g>
<g id="font_1_80">
<path transform="matrix(.001,0,0,.001,0,0)" d="M197 648V374H321C367 374 402 385 427 409 452 433 465 467 465 511 465 555 452 588 427 612 402 636 367 648 321 648H197M98 729H321C402 729 464 710 506 673 548 636 569 582 569 511 569 439 548 384 506 348 464 311 402 293 321 293H197V0H98V729"/>
</g>
<g id="font_1_85">
<path transform="matrix(.001,0,0,.001,0,0)" d="M87 729H186V286C186 208 200 151 228 117 256 83 302 66 366 66 429 66 475 83 503 117 531 151 546 208 546 286V729H645V274C645 178 621 107 574 59 527 11 458-13 366-13 274-13 204 11 157 59 110 107 87 178 87 274V729"/>
</g>
<g id="font_1_45">
<path transform="matrix(.001,0,0,.001,0,0)" d="M49 314H312V234H49V314"/>
</g>
<g id="font_1_72">
<path transform="matrix(.001,0,0,.001,0,0)" d="M98 729H197V430H555V729H654V0H555V347H197V0H98V729"/>
</g>
<g id="font_1_111">
<path transform="matrix(.001,0,0,.001,0,0)" d="M306 484C258 484 220 465 192 427 164 389 150 338 150 273 150 207 163 156 191 118 219 80 257 62 306 62 354 62 392 80 420 118 448 156 462 207 462 273 462 337 448 389 420 427 392 465 354 484 306 484M306 560C384 560 445 534 490 484 534 433 557 363 557 273 557 183 534 113 490 63 445 12 384-13 306-13 227-13 165 12 121 63 77 113 55 183 55 273 55 363 77 433 121 484 165 534 227 560 306 560"/>
</g>
<g id="font_1_117">
<path transform="matrix(.001,0,0,.001,0,0)" d="M85 216V547H175V219C175 167 185 129 205 103 225 77 255 64 296 64 344 64 383 79 411 110 439 141 453 183 453 237V547H543V0H453V84C431 50 405 26 377 10 348-5 315-13 277-13 214-13 166 6 134 45 101 83 85 140 85 216M311 560V560"/>
</g>
<g id="font_1_114">
<path transform="matrix(.001,0,0,.001,0,0)" d="M411 463C401 469 390 473 378 476 366 478 353 480 339 480 288 480 249 463 222 430 194 397 181 350 181 288V0H91V547H181V462C199 495 224 520 254 536 284 552 321 560 365 560 371 560 378 559 386 559 393 558 401 557 411 555V463"/>
</g>
<g id="font_1_115">
<path transform="matrix(.001,0,0,.001,0,0)" d="M443 531V446C417 458 391 468 364 475 336 481 308 485 279 485 234 485 200 478 178 464 156 450 145 430 145 403 145 382 153 366 169 354 185 342 217 330 265 320L296 313C360 299 405 279 432 255 458 230 472 195 472 151 472 100 452 60 412 31 372 1 316-13 246-13 216-13 186-10 154-5 122 0 89 8 54 20V113C87 95 120 82 152 74 184 65 216 61 248 61 290 61 323 68 346 82 368 96 380 117 380 144 380 168 371 187 355 200 339 213 303 226 247 238L216 245C160 257 119 275 95 299 70 323 58 356 58 399 58 450 76 490 112 518 148 546 200 560 268 560 301 560 332 557 362 552 391 547 418 540 443 531"/>
</g>
<clipPath id="clip_9">
<path transform="matrix(1,0,0,-1,0,396)" d="M51.21 48.06H761.55258V379.55427H51.21Z"/>
</clipPath>
<clipPath id="clip_10">
<path transform="matrix(1,0,0,-1,0,396)" d="M51.21 48.06H761.55258V379.55427H51.21Z"/>
</clipPath>
<clipPath id="clip_11">
<path transform="matrix(1,0,0,-1,0,396)" d="M51.21 48.06H761.55258V379.55427H51.21Z"/>
</clipPath>
<g id="font_1_52">
<path transform="matrix(.001,0,0,.001,0,0)" d="M378 643 129 254H378V643M352 729H476V254H580V172H476V0H378V172H49V267L352 729"/>
</g>
<clipPath id="clip_12">
<path transform="matrix(1,0,0,-1,0,396)" d="M51.21 48.06H761.55258V379.55427H51.21Z"/>
</clipPath>
<g id="font_1_54">
<path transform="matrix(.001,0,0,.001,0,0)" d="M330 404C286 404 251 388 225 358 199 328 186 286 186 234 186 181 199 139 225 109 251 79 286 64 330 64 374 64 409 79 435 109 461 139 474 181 474 234 474 286 461 328 435 358 409 388 374 404 330 404M526 713V623C501 635 476 644 451 650 425 656 400 659 376 659 310 659 260 637 226 593 192 549 172 482 168 394 187 422 211 444 240 459 269 474 301 482 336 482 409 482 467 459 509 415 551 371 573 310 573 234 573 159 550 99 506 54 462 9 403-13 330-13 246-13 181 19 137 83 92 147 70 241 70 364 70 479 97 571 152 639 206 707 280 742 372 742 396 742 421 739 447 735 472 730 498 723 526 713"/>
</g>
<clipPath id="clip_13">
<path transform="matrix(1,0,0,-1,0,396)" d="M51.21 48.06H761.55258V379.55427H51.21Z"/>
</clipPath>
<g id="font_1_56">
<path transform="matrix(.001,0,0,.001,0,0)" d="M318 346C271 346 234 333 207 308 180 283 167 249 167 205 167 161 180 126 207 101 234 76 271 64 318 64 364 64 401 76 428 102 455 127 469 161 469 205 469 249 455 283 429 308 402 333 365 346 318 346M219 388C177 398 144 418 120 447 96 476 85 511 85 553 85 611 105 657 147 691 188 725 245 742 318 742 390 742 447 725 489 691 530 657 551 611 551 553 551 511 539 476 515 447 491 418 459 398 417 388 464 377 501 355 528 323 554 291 568 251 568 205 568 134 546 80 503 43 459 5 398-13 318-13 237-13 175 5 132 43 89 80 68 134 68 205 68 251 81 291 108 323 134 355 171 377 219 388M183 544C183 506 194 476 218 455 242 434 275 424 318 424 360 424 393 434 417 455 441 476 453 506 453 544 453 582 441 611 417 632 393 653 360 664 318 664 275 664 242 653 218 632 194 611 183 582 183 544"/>
</g>
<clipPath id="clip_14">
<path transform="matrix(1,0,0,-1,0,396)" d="M51.21 48.06H761.55258V379.55427H51.21Z"/>
</clipPath>
<clipPath id="clip_15">
<path transform="matrix(1,0,0,-1,0,396)" d="M51.21 48.06H761.55258V379.55427H51.21Z"/>
</clipPath>
<clipPath id="clip_16">
<path transform="matrix(1,0,0,-1,0,396)" d="M51.21 48.06H761.55258V379.55427H51.21Z"/>
</clipPath>
<clipPath id="clip_17">
<path transform="matrix(1,0,0,-1,0,396)" d="M51.21 48.06H761.55258V379.55427H51.21Z"/>
</clipPath>
<g id="font_1_66">
<path transform="matrix(.001,0,0,.001,0,0)" d="M197 348V81H355C408 81 447 92 473 114 498 136 511 169 511 215 511 260 498 293 473 315 447 337 408 348 355 348H197M197 648V428H343C391 428 426 437 450 455 474 473 486 500 486 538 486 574 474 602 450 620 426 638 391 648 343 648H197M98 729H350C425 729 483 713 524 682 564 650 585 606 585 549 585 504 574 468 553 442 532 416 502 399 462 393 510 382 548 360 575 327 601 294 615 253 615 204 615 138 592 88 548 53 504 17 441 0 360 0H98V729"/>
</g>
<g id="font_1_76">
<path transform="matrix(.001,0,0,.001,0,0)" d="M98 729H197V83H552V0H98V729"/>
</g>
<g id="font_1_69">
<path transform="matrix(.001,0,0,.001,0,0)" d="M98 729H559V646H197V430H544V347H197V83H568V0H98V729"/>
</g>
<clipPath id="clip_18">
<path transform="matrix(1,0,0,-1,0,396)" d="M51.21 48.06H761.55258V379.55427H51.21Z"/>
</clipPath>
<g id="font_1_89">
<path transform="matrix(.001,0,0,.001,0,0)" d="M-1 729H104L306 429 507 729H613L355 347V0H256V347L-1 729"/>
</g>
<g id="font_1_84">
<path transform="matrix(.001,0,0,.001,0,0)" d="M-2 729H614V646H355V0H256V646H-2V729"/>
</g>
<g id="font_1_40">
<path transform="matrix(.001,0,0,.001,0,0)" d="M310 759C266 683 234 609 213 536 191 463 181 389 181 314 181 238 191 164 213 91 234 17 266-56 310-131H232C183-54 146 20 122 94 98 168 86 241 86 314 86 386 98 459 122 533 146 607 182 682 232 759H310"/>
</g>
<g id="font_1_41">
<path transform="matrix(.001,0,0,.001,0,0)" d="M80 759H158C206 682 243 607 267 533 291 459 304 386 304 314 304 241 291 168 267 94 243 20 206-54 158-131H80C123-56 155 17 177 91 198 164 209 238 209 314 209 389 198 463 177 536 155 609 123 683 80 759"/>
</g>
<g id="font_1_83">
<path transform="matrix(.001,0,0,.001,0,0)" d="M535 705V609C497 627 462 640 429 649 395 657 363 662 333 662 279 662 237 651 208 631 179 610 165 580 165 542 165 510 174 485 194 469 213 452 250 439 304 429L364 417C437 403 491 378 526 343 561 307 579 260 579 201 579 130 555 77 508 41 460 5 391-13 300-13 265-13 228-9 189-2 150 5 110 16 69 32V134C109 111 148 94 186 83 224 71 262 66 300 66 356 66 399 77 430 99 460 121 476 152 476 194 476 230 465 258 443 278 421 298 385 313 335 323L275 335C201 349 148 372 115 404 82 435 66 478 66 534 66 598 88 649 134 686 179 723 242 742 322 742 356 742 390 739 426 733 461 727 497 717 535 705"/>
</g>
<clipPath id="clip_19">
<path transform="matrix(.009996,0,0,-.009996,60.88441,85.421268)" d="M-1021-463H1794V1233H-1021Z"/>
</clipPath>
<g id="font_1_43">
<path transform="matrix(.001,0,0,.001,0,0)" d="M460 627V355H732V272H460V0H378V272H106V355H378V627H460"/>
</g>
<clipPath id="clip_20">
<path transform="matrix(.009996,0,0,-.009996,423.91996,33.94699)" d="M-1021-463H1794V1233H-1021Z"/>
</clipPath>
<clipPath id="clip_21">
<path transform="matrix(.009996,0,0,-.009996,735.33889,49.541719)" d="M-1021-463H1794V1233H-1021Z"/>
</clipPath>
<g id="font_1_121">
<path transform="matrix(.001,0,0,.001,0,0)" d="M322-50C296-114 271-157 247-177 223-197 191-207 151-207H79V-132H132C156-132 175-126 189-114 203-102 218-75 235-31L251 9 30 547H125L296 119 467 547H562L322-50"/>
</g>
<g id="font_1_112">
<path transform="matrix(.001,0,0,.001,0,0)" d="M181 82V-207H91V547H181V464C199 496 223 520 252 536 281 552 316 560 356 560 422 560 476 533 518 481 559 428 580 359 580 273 580 187 559 117 518 65 476 13 422-13 356-13 316-13 281-5 252 10 223 25 199 49 181 82M487 273C487 339 473 390 446 428 418 466 381 485 334 485 286 485 249 466 222 428 194 390 181 339 181 273 181 207 194 155 222 117 249 79 286 61 334 61 381 61 418 79 446 117 473 155 487 207 487 273"/>
</g>
<g id="font_1_101">
<path transform="matrix(.001,0,0,.001,0,0)" d="M562 296V252H149C153 190 171 142 205 110 238 78 284 62 344 62 378 62 412 66 444 74 476 82 509 95 541 113V28C509 14 476 3 442-3 408-9 373-13 339-13 251-13 182 12 131 62 80 112 55 181 55 268 55 357 79 428 127 481 175 533 241 560 323 560 397 560 455 536 498 489 540 441 562 377 562 296M472 322C471 371 457 410 431 440 404 469 368 484 324 484 274 484 234 469 204 441 174 413 156 373 152 322H472"/>
</g>
<g id="font_1_32">
</g>
<g id="font_1_102">
<path transform="matrix(.001,0,0,.001,0,0)" d="M371 760V685H285C253 685 230 678 218 665 205 652 199 629 199 595V547H347V477H199V0H109V477H23V547H109V585C109 645 123 690 151 718 179 746 224 760 286 760H371"/>
</g>
<g id="font_1_109">
<path transform="matrix(.001,0,0,.001,0,0)" d="M520 442C542 482 569 511 600 531 631 550 668 560 711 560 767 560 811 540 842 500 873 460 889 403 889 330V0H799V327C799 379 789 418 771 444 752 469 724 482 686 482 639 482 602 466 575 435 548 404 535 362 535 309V0H445V327C445 379 435 418 417 444 398 469 369 482 331 482 285 482 248 466 221 435 194 404 181 362 181 309V0H91V547H181V462C201 495 226 520 255 536 283 552 317 560 357 560 397 560 430 550 458 530 486 510 506 480 520 442"/>
</g>
<g id="font_1_100">
<path transform="matrix(.001,0,0,.001,0,0)" d="M454 464V760H544V0H454V82C435 49 411 25 382 10 353-5 319-13 279-13 213-13 159 13 117 65 75 117 55 187 55 273 55 359 75 428 117 481 159 533 213 560 279 560 319 560 353 552 382 536 411 520 435 496 454 464M148 273C148 207 161 155 188 117 215 79 253 61 301 61 348 61 385 79 413 117 440 155 454 207 454 273 454 339 440 390 413 428 385 466 348 485 301 485 253 485 215 466 188 428 161 390 148 339 148 273"/>
</g>
<g id="font_1_108">
<path transform="matrix(.001,0,0,.001,0,0)" d="M94 760H184V0H94V760"/>
</g>
<g id="font_1_79">
<path transform="matrix(.001,0,0,.001,0,0)" d="M394 662C322 662 265 635 223 582 181 528 160 456 160 364 160 272 181 199 223 146 265 92 322 66 394 66 465 66 522 92 564 146 606 199 627 272 627 364 627 456 606 528 564 582 522 635 465 662 394 662M394 742C496 742 577 707 639 639 700 571 731 479 731 364 731 248 700 157 639 89 577 21 496-13 394-13 291-13 209 21 148 89 86 157 56 248 56 364 56 479 86 571 148 639 209 707 291 742 394 742"/>
</g>
<g id="font_1_86">
<path transform="matrix(.001,0,0,.001,0,0)" d="M286 0 8 729H111L342 115 573 729H676L398 0H286"/>
</g>
<g id="font_1_78">
<path transform="matrix(.001,0,0,.001,0,0)" d="M98 729H231L554 119V729H650V0H517L194 610V0H98V729"/>
</g>
<g id="font_1_46">
<path transform="matrix(.001,0,0,.001,0,0)" d="M107 124H210V0H107V124"/>
</g>
<g id="font_1_97">
<path transform="matrix(.001,0,0,.001,0,0)" d="M343 275C270 275 220 266 192 250 164 233 150 205 150 165 150 133 160 107 181 89 202 70 231 61 267 61 317 61 357 78 387 114 417 149 432 196 432 255V275H343M522 312V0H432V83C411 49 385 25 355 10 325-5 287-13 243-13 187-13 142 2 109 33 76 64 60 106 60 159 60 220 80 266 122 298 163 329 224 345 306 345H432V354C432 395 418 427 391 450 364 472 326 484 277 484 245 484 215 480 185 472 155 464 127 453 100 439V522C132 534 164 544 195 550 226 556 256 560 286 560 365 560 424 539 463 498 502 457 522 395 522 312"/>
</g>
</defs>
<g>
<path transform="matrix(1,0,0,-1,0,396)" d="M0 0H792V396H0Z" fill="#ffffff"/>
<path transform="matrix(1,0,0,-1,0,396)" d="M51.21 48.06H761.55258V379.55427H51.21Z" fill="#eaeaf2"/>
<g clip-path="url(#clip_0)">
<path transform="matrix(1,0,0,-1,0,396)" stroke-width="1" stroke-linecap="round" stroke-linejoin="round" fill="none" stroke="#ffffff" d="M51.21 48.06V379.55427"/>
</g>
<use data-text="0" xlink:href="#font_1_48" transform="matrix(11,0,0,-11,47.71,365.79939)" fill="#262626"/>
<g clip-path="url(#clip_2)">
<path transform="matrix(1,0,0,-1,0,396)" stroke-width="1" stroke-linecap="round" stroke-linejoin="round" fill="none" stroke="#ffffff" d="M152.6846 48.06V379.55427"/>
</g>
<use data-text="5" xlink:href="#font_1_53" transform="matrix(11,0,0,-11,138.6846,365.79939)" fill="#262626"/>
<use data-text="0" xlink:href="#font_1_48" transform="matrix(11,0,0,-11,145.6806,365.79939)" fill="#262626"/>
<use data-text="0" xlink:href="#font_1_48" transform="matrix(11,0,0,-11,152.6766,365.79939)" fill="#262626"/>
<use data-text="0" xlink:href="#font_1_48" transform="matrix(11,0,0,-11,159.6726,365.79939)" fill="#262626"/>
<g clip-path="url(#clip_3)">
<path transform="matrix(1,0,0,-1,0,396)" stroke-width="1" stroke-linecap="round" stroke-linejoin="round" fill="none" stroke="#ffffff" d="M254.15921 48.06V379.55427"/>
</g>
<use data-text="1" xlink:href="#font_1_49" transform="matrix(11,0,0,-11,236.65921,365.79939)" fill="#262626"/>
<use data-text="0" xlink:href="#font_1_48" transform="matrix(11,0,0,-11,243.65522,365.79939)" fill="#262626"/>
<use data-text="0" xlink:href="#font_1_48" transform="matrix(11,0,0,-11,250.65122,365.79939)" fill="#262626"/>
<use data-text="0" xlink:href="#font_1_48" transform="matrix(11,0,0,-11,257.64723,365.79939)" fill="#262626"/>
<use data-text="0" xlink:href="#font_1_48" transform="matrix(11,0,0,-11,264.64323,365.79939)" fill="#262626"/>
<g clip-path="url(#clip_4)">
<path transform="matrix(1,0,0,-1,0,396)" stroke-width="1" stroke-linecap="round" stroke-linejoin="round" fill="none" stroke="#ffffff" d="M355.63383 48.06V379.55427"/>
</g>
<use data-text="1" xlink:href="#font_1_49" transform="matrix(11,0,0,-11,338.13383,365.79939)" fill="#262626"/>
<use data-text="5" xlink:href="#font_1_53" transform="matrix(11,0,0,-11,345.12983,365.79939)" fill="#262626"/>
<use data-text="0" xlink:href="#font_1_48" transform="matrix(11,0,0,-11,352.12583,365.79939)" fill="#262626"/>
<use data-text="0" xlink:href="#font_1_48" transform="matrix(11,0,0,-11,359.12184,365.79939)" fill="#262626"/>
<use data-text="0" xlink:href="#font_1_48" transform="matrix(11,0,0,-11,366.11784,365.79939)" fill="#262626"/>
<g clip-path="url(#clip_5)">
<path transform="matrix(1,0,0,-1,0,396)" stroke-width="1" stroke-linecap="round" stroke-linejoin="round" fill="none" stroke="#ffffff" d="M457.10844 48.06V379.55427"/>
</g>
<use data-text="2" xlink:href="#font_1_50" transform="matrix(11,0,0,-11,439.60844,365.79939)" fill="#262626"/>
<use data-text="0" xlink:href="#font_1_48" transform="matrix(11,0,0,-11,446.60444,365.79939)" fill="#262626"/>
<use data-text="0" xlink:href="#font_1_48" transform="matrix(11,0,0,-11,453.60044,365.79939)" fill="#262626"/>
<use data-text="0" xlink:href="#font_1_48" transform="matrix(11,0,0,-11,460.59645,365.79939)" fill="#262626"/>
<use data-text="0" xlink:href="#font_1_48" transform="matrix(11,0,0,-11,467.59245,365.79939)" fill="#262626"/>
<g clip-path="url(#clip_6)">
<path transform="matrix(1,0,0,-1,0,396)" stroke-width="1" stroke-linecap="round" stroke-linejoin="round" fill="none" stroke="#ffffff" d="M558.583 48.06V379.55427"/>
</g>
<use data-text="2" xlink:href="#font_1_50" transform="matrix(11,0,0,-11,541.083,365.79939)" fill="#262626"/>
<use data-text="5" xlink:href="#font_1_53" transform="matrix(11,0,0,-11,548.079,365.79939)" fill="#262626"/>
<use data-text="0" xlink:href="#font_1_48" transform="matrix(11,0,0,-11,555.07498,365.79939)" fill="#262626"/>
<use data-text="0" xlink:href="#font_1_48" transform="matrix(11,0,0,-11,562.0709,365.79939)" fill="#262626"/>
<use data-text="0" xlink:href="#font_1_48" transform="matrix(11,0,0,-11,569.0669,365.79939)" fill="#262626"/>
<g clip-path="url(#clip_7)">
<path transform="matrix(1,0,0,-1,0,396)" stroke-width="1" stroke-linecap="round" stroke-linejoin="round" fill="none" stroke="#ffffff" d="M660.0576 48.06V379.55427"/>
</g>
<use data-text="3" xlink:href="#font_1_51" transform="matrix(11,0,0,-11,642.5576,365.79939)" fill="#262626"/>
<use data-text="0" xlink:href="#font_1_48" transform="matrix(11,0,0,-11,649.5536,365.79939)" fill="#262626"/>
<use data-text="0" xlink:href="#font_1_48" transform="matrix(11,0,0,-11,656.54959,365.79939)" fill="#262626"/>
<use data-text="0" xlink:href="#font_1_48" transform="matrix(11,0,0,-11,663.54556,365.79939)" fill="#262626"/>
<use data-text="0" xlink:href="#font_1_48" transform="matrix(11,0,0,-11,670.5415,365.79939)" fill="#262626"/>
<g clip-path="url(#clip_8)">
<path transform="matrix(1,0,0,-1,0,396)" stroke-width="1" stroke-linecap="round" stroke-linejoin="round" fill="none" stroke="#ffffff" d="M761.5322 48.06V379.55427"/>
</g>
<use data-text="3" xlink:href="#font_1_51" transform="matrix(11,0,0,-11,744.0322,365.79939)" fill="#262626"/>
<use data-text="5" xlink:href="#font_1_53" transform="matrix(11,0,0,-11,751.0282,365.79939)" fill="#262626"/>
<use data-text="0" xlink:href="#font_1_48" transform="matrix(11,0,0,-11,758.0242,365.79939)" fill="#262626"/>
<use data-text="0" xlink:href="#font_1_48" transform="matrix(11,0,0,-11,765.02017,365.79939)" fill="#262626"/>
<use data-text="0" xlink:href="#font_1_48" transform="matrix(11,0,0,-11,772.0161,365.79939)" fill="#262626"/>
<use data-text="G" xlink:href="#font_1_71" transform="matrix(12,0,0,-12,373.975,381.20564)" fill="#262626"/>
<use data-text="P" xlink:href="#font_1_80" transform="matrix(12,0,0,-12,383.275,381.20564)" fill="#262626"/>
<use data-text="U" xlink:href="#font_1_85" transform="matrix(12,0,0,-12,390.511,381.20564)" fill="#262626"/>
<use data-text="-" xlink:href="#font_1_45" transform="matrix(12,0,0,-12,399.29499,381.20564)" fill="#262626"/>
<use data-text="H" xlink:href="#font_1_72" transform="matrix(12,0,0,-12,403.62699,381.20564)" fill="#262626"/>
<use data-text="o" xlink:href="#font_1_111" transform="matrix(12,0,0,-12,412.65098,381.20564)" fill="#262626"/>
<use data-text="u" xlink:href="#font_1_117" transform="matrix(12,0,0,-12,419.99497,381.20564)" fill="#262626"/>
<use data-text="r" xlink:href="#font_1_114" transform="matrix(12,0,0,-12,427.60298,381.20564)" fill="#262626"/>
<use data-text="s" xlink:href="#font_1_115" transform="matrix(12,0,0,-12,432.53498,381.20564)" fill="#262626"/>
<g clip-path="url(#clip_9)">
<path transform="matrix(1,0,0,-1,0,396)" stroke-width="1" stroke-linecap="round" stroke-linejoin="round" fill="none" stroke="#ffffff" d="M51.21 48.06H761.55258"/>
</g>
<use data-text="0" xlink:href="#font_1_48" transform="matrix(11,0,0,-11,34.71,352.1197)" fill="#262626"/>
<g clip-path="url(#clip_10)">
<path transform="matrix(1,0,0,-1,0,396)" stroke-width="1" stroke-linecap="round" stroke-linejoin="round" fill="none" stroke="#ffffff" d="M51.21 89.23941H761.55258"/>
</g>
<use data-text="2" xlink:href="#font_1_50" transform="matrix(11,0,0,-11,34.71,310.94029)" fill="#262626"/>
<g clip-path="url(#clip_11)">
<path transform="matrix(1,0,0,-1,0,396)" stroke-width="1" stroke-linecap="round" stroke-linejoin="round" fill="none" stroke="#ffffff" d="M51.21 130.41883H761.55258"/>
</g>
<use data-text="4" xlink:href="#font_1_52" transform="matrix(11,0,0,-11,34.71,269.76087)" fill="#262626"/>
<g clip-path="url(#clip_12)">
<path transform="matrix(1,0,0,-1,0,396)" stroke-width="1" stroke-linecap="round" stroke-linejoin="round" fill="none" stroke="#ffffff" d="M51.21 171.59824H761.55258"/>
</g>
<use data-text="6" xlink:href="#font_1_54" transform="matrix(11,0,0,-11,34.71,228.58145)" fill="#262626"/>
<g clip-path="url(#clip_13)">
<path transform="matrix(1,0,0,-1,0,396)" stroke-width="1" stroke-linecap="round" stroke-linejoin="round" fill="none" stroke="#ffffff" d="M51.21 212.77765H761.55258"/>
</g>
<use data-text="8" xlink:href="#font_1_56" transform="matrix(11,0,0,-11,34.71,187.40204)" fill="#262626"/>
<g clip-path="url(#clip_14)">
<path transform="matrix(1,0,0,-1,0,396)" stroke-width="1" stroke-linecap="round" stroke-linejoin="round" fill="none" stroke="#ffffff" d="M51.21 253.95706H761.55258"/>
</g>
<use data-text="1" xlink:href="#font_1_49" transform="matrix(11,0,0,-11,27.71,146.22263)" fill="#262626"/>
<use data-text="0" xlink:href="#font_1_48" transform="matrix(11,0,0,-11,34.706,146.22263)" fill="#262626"/>
<g clip-path="url(#clip_15)">
<path transform="matrix(1,0,0,-1,0,396)" stroke-width="1" stroke-linecap="round" stroke-linejoin="round" fill="none" stroke="#ffffff" d="M51.21 295.13648H761.55258"/>
</g>
<use data-text="1" xlink:href="#font_1_49" transform="matrix(11,0,0,-11,27.71,105.04321)" fill="#262626"/>
<use data-text="2" xlink:href="#font_1_50" transform="matrix(11,0,0,-11,34.706,105.04321)" fill="#262626"/>
<g clip-path="url(#clip_16)">
<path transform="matrix(1,0,0,-1,0,396)" stroke-width="1" stroke-linecap="round" stroke-linejoin="round" fill="none" stroke="#ffffff" d="M51.21 336.3159H761.55258"/>
</g>
<use data-text="1" xlink:href="#font_1_49" transform="matrix(11,0,0,-11,27.71,63.8638)" fill="#262626"/>
<use data-text="4" xlink:href="#font_1_52" transform="matrix(11,0,0,-11,34.706,63.8638)" fill="#262626"/>
<g clip-path="url(#clip_17)">
<path transform="matrix(1,0,0,-1,0,396)" stroke-width="1" stroke-linecap="round" stroke-linejoin="round" fill="none" stroke="#ffffff" d="M51.21 377.4953H761.55258"/>
</g>
<use data-text="1" xlink:href="#font_1_49" transform="matrix(11,0,0,-11,27.71,22.684388)" fill="#262626"/>
<use data-text="6" xlink:href="#font_1_54" transform="matrix(11,0,0,-11,34.706,22.684388)" fill="#262626"/>
<use data-text="B" xlink:href="#font_1_66" transform="matrix(0,-12,-12,-0,21.21,197.8335)" fill="#262626"/>
<use data-text="L" xlink:href="#font_1_76" transform="matrix(0,-12,-12,-0,21.21,189.6015)" fill="#262626"/>
<use data-text="E" xlink:href="#font_1_69" transform="matrix(0,-12,-12,-0,21.21,182.9175)" fill="#262626"/>
<use data-text="U" xlink:href="#font_1_85" transform="matrix(0,-12,-12,-0,21.21,175.3335)" fill="#262626"/>
<g clip-path="url(#clip_18)">
<g>
<path transform="matrix(1,0,0,-1,0,396)" d="M63.224596 94.73668C63.950883 94.73668 64.64752 95.02524 65.16109 95.5388 65.67465 96.05237 65.9632 96.74901 65.9632 97.475299 65.9632 98.201587 65.67465 98.898227 65.16109 99.41178 64.64752 99.92535 63.950883 100.213909 63.224596 100.213909 62.498308 100.213909 61.801668 99.92535 61.2881 99.41178 60.774538 98.898227 60.48598 98.201587 60.48598 97.475299 60.48598 96.74901 60.774538 96.05237 61.2881 95.5388 61.801668 95.02524 62.498308 94.73668 63.224596 94.73668Z" fill="#0000ff" fill-opacity=".6"/>
<path transform="matrix(1,0,0,-1,0,396)" stroke-width=".43817804" stroke-linecap="butt" stroke-linejoin="round" fill="none" stroke="#ffffff" stroke-opacity=".6" d="M63.224596 94.73668C63.950883 94.73668 64.64752 95.02524 65.16109 95.5388 65.67465 96.05237 65.9632 96.74901 65.9632 97.475299 65.9632 98.201587 65.67465 98.898227 65.16109 99.41178 64.64752 99.92535 63.950883 100.213909 63.224596 100.213909 62.498308 100.213909 61.801668 99.92535 61.2881 99.41178 60.774538 98.898227 60.48598 98.201587 60.48598 97.475299 60.48598 96.74901 60.774538 96.05237 61.2881 95.5388 61.801668 95.02524 62.498308 94.73668 63.224596 94.73668Z"/>
</g>
<g>
<path transform="matrix(1,0,0,-1,0,396)" d="M68.74481 152.38787C69.4711 152.38787 70.16774 152.6764 70.681308 153.18997 71.19487 153.70354 71.48342 154.40018 71.48342 155.12647 71.48342 155.85276 71.19487 156.5494 70.681308 157.06296 70.16774 157.57653 69.4711 157.86508 68.74481 157.86508 68.018527 157.86508 67.321887 157.57653 66.80832 157.06296 66.294757 156.5494 66.0062 155.85276 66.0062 155.12647 66.0062 154.40018 66.294757 153.70354 66.80832 153.18997 67.321887 152.6764 68.018527 152.38787 68.74481 152.38787Z" fill="#0000ff" fill-opacity=".6"/>
<path transform="matrix(1,0,0,-1,0,396)" stroke-width=".43817804" stroke-linecap="butt" stroke-linejoin="round" fill="none" stroke="#ffffff" stroke-opacity=".6" d="M68.74481 152.38787C69.4711 152.38787 70.16774 152.6764 70.681308 153.18997 71.19487 153.70354 71.48342 154.40018 71.48342 155.12647 71.48342 155.85276 71.19487 156.5494 70.681308 157.06296 70.16774 157.57653 69.4711 157.86508 68.74481 157.86508 68.018527 157.86508 67.321887 157.57653 66.80832 157.06296 66.294757 156.5494 66.0062 155.85276 66.0062 155.12647 66.0062 154.40018 66.294757 153.70354 66.80832 153.18997 67.321887 152.6764 68.018527 152.38787 68.74481 152.38787Z"/>
</g>
<g>
<path transform="matrix(1,0,0,-1,0,396)" d="M69.069538 339.75419C69.79582 339.75419 70.49246 340.04273 71.00602 340.5563 71.519588 341.06986 71.80814 341.7665 71.80814 342.4928 71.80814 343.2191 71.519588 343.9157 71.00602 344.4293 70.49246 344.94285 69.79582 345.2314 69.069538 345.2314 68.34324 345.2314 67.64661 344.94285 67.13304 344.4293 66.61948 343.9157 66.33092 343.2191 66.33092 342.4928 66.33092 341.7665 66.61948 341.06986 67.13304 340.5563 67.64661 340.04273 68.34324 339.75419 69.069538 339.75419Z" fill="#0000ff" fill-opacity=".6"/>
<path transform="matrix(1,0,0,-1,0,396)" stroke-width=".43817804" stroke-linecap="butt" stroke-linejoin="round" fill="none" stroke="#ffffff" stroke-opacity=".6" d="M69.069538 339.75419C69.79582 339.75419 70.49246 340.04273 71.00602 340.5563 71.519588 341.06986 71.80814 341.7665 71.80814 342.4928 71.80814 343.2191 71.519588 343.9157 71.00602 344.4293 70.49246 344.94285 69.79582 345.2314 69.069538 345.2314 68.34324 345.2314 67.64661 344.94285 67.13304 344.4293 66.61948 343.9157 66.33092 343.2191 66.33092 342.4928 66.33092 341.7665 66.61948 341.06986 67.13304 340.5563 67.64661 340.04273 68.34324 339.75419 69.069538 339.75419Z"/>
</g>
<g>
<path transform="matrix(1,0,0,-1,0,396)" d="M427.37638 278.20045C430.2297 278.20045 432.96659 279.3341 434.9842 281.3517 437.00184 283.36936 438.13548 286.1062 438.13548 288.95957 438.13548 291.8129 437.00184 294.54978 434.9842 296.56739 432.96659 298.58503 430.2297 299.71867 427.37638 299.71867 424.523 299.71867 421.78614 298.58503 419.76853 296.56739 417.75093 294.54978 416.61726 291.8129 416.61726 288.95957 416.61726 286.1062 417.75093 283.36936 419.76853 281.3517 421.78614 279.3341 424.523 278.20045 427.37638 278.20045Z" fill="#ffa500" fill-opacity=".6"/>
<path transform="matrix(1,0,0,-1,0,396)" stroke-width=".43817804" stroke-linecap="butt" stroke-linejoin="round" fill="none" stroke="#ffffff" stroke-opacity=".6" d="M427.37638 278.20045C430.2297 278.20045 432.96659 279.3341 434.9842 281.3517 437.00184 283.36936 438.13548 286.1062 438.13548 288.95957 438.13548 291.8129 437.00184 294.54978 434.9842 296.56739 432.96659 298.58503 430.2297 299.71867 427.37638 299.71867 424.523 299.71867 421.78614 298.58503 419.76853 296.56739 417.75093 294.54978 416.61726 291.8129 416.61726 288.95957 416.61726 286.1062 417.75093 283.36936 419.76853 281.3517 421.78614 279.3341 424.523 278.20045 427.37638 278.20045Z"/>
</g>
<g>
<path transform="matrix(1,0,0,-1,0,396)" d="M431.31358 183.48781C434.16694 183.48781 436.9038 184.62145 438.92143 186.63907 440.93904 188.6567 442.0727 191.39356 442.0727 194.2469 442.0727 197.10027 440.93904 199.83713 438.92143 201.85475 436.9038 203.87238 434.16694 205.00601 431.31358 205.00601 428.46025 205.00601 425.72337 203.87238 423.70576 201.85475 421.6881 199.83713 420.55448 197.10027 420.55448 194.2469 420.55448 191.39356 421.6881 188.6567 423.70576 186.63907 425.72337 184.62145 428.46025 183.48781 431.31358 183.48781Z" fill="#ffa500" fill-opacity=".6"/>
<path transform="matrix(1,0,0,-1,0,396)" stroke-width=".43817804" stroke-linecap="butt" stroke-linejoin="round" fill="none" stroke="#ffffff" stroke-opacity=".6" d="M431.31358 183.48781C434.16694 183.48781 436.9038 184.62145 438.92143 186.63907 440.93904 188.6567 442.0727 191.39356 442.0727 194.2469 442.0727 197.10027 440.93904 199.83713 438.92143 201.85475 436.9038 203.87238 434.16694 205.00601 431.31358 205.00601 428.46025 205.00601 425.72337 203.87238 423.70576 201.85475 421.6881 199.83713 420.55448 197.10027 420.55448 194.2469 420.55448 191.39356 421.6881 188.6567 423.70576 186.63907 425.72337 184.62145 428.46025 183.48781 431.31358 183.48781Z"/>
</g>
<g>
<path transform="matrix(1,0,0,-1,0,396)" d="M432.10508 331.73368C434.95845 331.73368 437.69529 332.86735 439.71293 334.88496 441.73054 336.9026 442.8642 339.63945 442.8642 342.4928 442.8642 345.34614 441.73054 348.083 439.71293 350.10063 437.69529 352.11827 434.95845 353.2519 432.10508 353.2519 429.25175 353.2519 426.51487 352.11827 424.49726 350.10063 422.4796 348.083 421.34599 345.34614 421.34599 342.4928 421.34599 339.63945 422.4796 336.9026 424.49726 334.88496 426.51487 332.86735 429.25175 331.73368 432.10508 331.73368Z" fill="#ffa500" fill-opacity=".6"/>
<path transform="matrix(1,0,0,-1,0,396)" stroke-width=".43817804" stroke-linecap="butt" stroke-linejoin="round" fill="none" stroke="#ffffff" stroke-opacity=".6" d="M432.10508 331.73368C434.95845 331.73368 437.69529 332.86735 439.71293 334.88496 441.73054 336.9026 442.8642 339.63945 442.8642 342.4928 442.8642 345.34614 441.73054 348.083 439.71293 350.10063 437.69529 352.11827 434.95845 353.2519 432.10508 353.2519 429.25175 353.2519 426.51487 352.11827 424.49726 350.10063 422.4796 348.083 421.34599 345.34614 421.34599 342.4928 421.34599 339.63945 422.4796 336.9026 424.49726 334.88496 426.51487 332.86735 429.25175 331.73368 432.10508 331.73368Z"/>
</g>
<g>
<path transform="matrix(1,0,0,-1,0,396)" d="M432.10508 339.96958C434.95845 339.96958 437.69529 341.1032 439.71293 343.12083 441.73054 345.13847 442.8642 347.87535 442.8642 350.72868 442.8642 353.58204 441.73054 356.31889 439.71293 358.33653 437.69529 360.35414 434.95845 361.4878 432.10508 361.4878 429.25175 361.4878 426.51487 360.35414 424.49726 358.33653 422.4796 356.31889 421.34599 353.58204 421.34599 350.72868 421.34599 347.87535 422.4796 345.13847 424.49726 343.12083 426.51487 341.1032 429.25175 339.96958 432.10508 339.96958Z" fill="#ffa500" fill-opacity=".6"/>
<path transform="matrix(1,0,0,-1,0,396)" stroke-width=".43817804" stroke-linecap="butt" stroke-linejoin="round" fill="none" stroke="#ffffff" stroke-opacity=".6" d="M432.10508 339.96958C434.95845 339.96958 437.69529 341.1032 439.71293 343.12083 441.73054 345.13847 442.8642 347.87535 442.8642 350.72868 442.8642 353.58204 441.73054 356.31889 439.71293 358.33653 437.69529 360.35414 434.95845 361.4878 432.10508 361.4878 429.25175 361.4878 426.51487 360.35414 424.49726 358.33653 422.4796 356.31889 421.34599 353.58204 421.34599 350.72868 421.34599 347.87535 422.4796 345.13847 424.49726 343.12083 426.51487 341.1032 429.25175 339.96958 432.10508 339.96958Z"/>
</g>
<g>
<path transform="matrix(1,0,0,-1,0,396)" d="M107.10221 294.25099C110.067279 294.25099 112.91129 295.42903 115.007907 297.52565 117.10452 299.62226 118.282558 302.46626 118.282558 305.43135 118.282558 308.3964 117.10452 311.2404 115.007907 313.337 112.91129 315.43363 110.067279 316.61167 107.10221 316.61167 104.13715 316.61167 101.29314 315.43363 99.19652 313.337 97.09991 311.2404 95.921878 308.3964 95.921878 305.43135 95.921878 302.46626 97.09991 299.62226 99.19652 297.52565 101.29314 295.42903 104.13715 294.25099 107.10221 294.25099Z" fill="#ffa500" fill-opacity=".6"/>
<path transform="matrix(1,0,0,-1,0,396)" stroke-width=".43817804" stroke-linecap="butt" stroke-linejoin="round" fill="none" stroke="#ffffff" stroke-opacity=".6" d="M107.10221 294.25099C110.067279 294.25099 112.91129 295.42903 115.007907 297.52565 117.10452 299.62226 118.282558 302.46626 118.282558 305.43135 118.282558 308.3964 117.10452 311.2404 115.007907 313.337 112.91129 315.43363 110.067279 316.61167 107.10221 316.61167 104.13715 316.61167 101.29314 315.43363 99.19652 313.337 97.09991 311.2404 95.921878 308.3964 95.921878 305.43135 95.921878 302.46626 97.09991 299.62226 99.19652 297.52565 101.29314 295.42903 104.13715 294.25099 107.10221 294.25099Z"/>
</g>
<g>
<path transform="matrix(1,0,0,-1,0,396)" d="M162.99443 300.01609C165.95949 300.01609 168.80352 301.19413 170.90012 303.29075 172.99674 305.38737 174.17476 308.23139 174.17476 311.19645 174.17476 314.1615 172.99674 317.00553 170.90012 319.10215 168.80352 321.19877 165.95949 322.37678 162.99443 322.37678 160.02936 322.37678 157.18535 321.19877 155.08873 319.10215 152.99211 317.00553 151.81409 314.1615 151.81409 311.19645 151.81409 308.23139 152.99211 305.38737 155.08873 303.29075 157.18535 301.19413 160.02936 300.01609 162.99443 300.01609Z" fill="#ffa500" fill-opacity=".6"/>
<path transform="matrix(1,0,0,-1,0,396)" stroke-width=".43817804" stroke-linecap="butt" stroke-linejoin="round" fill="none" stroke="#ffffff" stroke-opacity=".6" d="M162.99443 300.01609C165.95949 300.01609 168.80352 301.19413 170.90012 303.29075 172.99674 305.38737 174.17476 308.23139 174.17476 311.19645 174.17476 314.1615 172.99674 317.00553 170.90012 319.10215 168.80352 321.19877 165.95949 322.37678 162.99443 322.37678 160.02936 322.37678 157.18535 321.19877 155.08873 319.10215 152.99211 317.00553 151.81409 314.1615 151.81409 311.19645 151.81409 308.23139 152.99211 305.38737 155.08873 303.29075 157.18535 301.19413 160.02936 300.01609 162.99443 300.01609Z"/>
</g>
<g>
<path transform="matrix(1,0,0,-1,0,396)" d="M274.77885 311.13456C277.74394 311.13456 280.58793 312.31257 282.68455 314.40919 284.78117 316.5058 285.9592 319.34983 285.9592 322.31489 285.9592 325.27995 284.78117 328.12397 282.68455 330.22059 280.58793 332.3172 277.74394 333.4952 274.77885 333.4952 271.81379 333.4952 268.96977 332.3172 266.87318 330.22059 264.77656 328.12397 263.5985 325.27995 263.5985 322.31489 263.5985 319.34983 264.77656 316.5058 266.87318 314.40919 268.96977 312.31257 271.81379 311.13456 274.77885 311.13456Z" fill="#ffa500" fill-opacity=".6"/>
<path transform="matrix(1,0,0,-1,0,396)" stroke-width=".43817804" stroke-linecap="butt" stroke-linejoin="round" fill="none" stroke="#ffffff" stroke-opacity=".6" d="M274.77885 311.13456C277.74394 311.13456 280.58793 312.31257 282.68455 314.40919 284.78117 316.5058 285.9592 319.34983 285.9592 322.31489 285.9592 325.27995 284.78117 328.12397 282.68455 330.22059 280.58793 332.3172 277.74394 333.4952 274.77885 333.4952 271.81379 333.4952 268.96977 332.3172 266.87318 330.22059 264.77656 328.12397 263.5985 325.27995 263.5985 322.31489 263.5985 319.34983 264.77656 316.5058 266.87318 314.40919 268.96977 312.31257 271.81379 311.13456 274.77885 311.13456Z"/>
</g>
<g>
<path transform="matrix(1,0,0,-1,0,396)" d="M498.34773 331.72425C501.31278 331.72425 504.15678 332.90229 506.2534 334.9989 508.35 337.09553 509.52806 339.9395 509.52806 342.90458 509.52806 345.86967 508.35 348.71366 506.2534 350.81028 504.15678 352.9069 501.31278 354.08494 498.34773 354.08494 495.38264 354.08494 492.53865 352.9069 490.44203 350.81028 488.3454 348.71366 487.16737 345.86967 487.16737 342.90458 487.16737 339.9395 488.3454 337.09553 490.44203 334.9989 492.53865 332.90229 495.38264 331.72425 498.34773 331.72425Z" fill="#ffa500" fill-opacity=".6"/>
<path transform="matrix(1,0,0,-1,0,396)" stroke-width=".43817804" stroke-linecap="butt" stroke-linejoin="round" fill="none" stroke="#ffffff" stroke-opacity=".6" d="M498.34773 331.72425C501.31278 331.72425 504.15678 332.90229 506.2534 334.9989 508.35 337.09553 509.52806 339.9395 509.52806 342.90458 509.52806 345.86967 508.35 348.71366 506.2534 350.81028 504.15678 352.9069 501.31278 354.08494 498.34773 354.08494 495.38264 354.08494 492.53865 352.9069 490.44203 350.81028 488.3454 348.71366 487.16737 345.86967 487.16737 342.90458 487.16737 339.9395 488.3454 337.09553 490.44203 334.9989 492.53865 332.90229 495.38264 331.72425 498.34773 331.72425Z"/>
</g>
<g>
<path transform="matrix(1,0,0,-1,0,396)" d="M719.15646 356.0201C722.1215 356.0201 724.9655 357.19813 727.06216 359.29475 729.15878 361.39137 730.3368 364.23539 730.3368 367.20045 730.3368 370.1655 729.15878 373.00953 727.06216 375.10615 724.9655 377.20277 722.1215 378.38078 719.15646 378.38078 716.1914 378.38078 713.34738 377.20277 711.25076 375.10615 709.1541 373.00953 707.97616 370.1655 707.97616 367.20045 707.97616 364.23539 709.1541 361.39137 711.25076 359.29475 713.34738 357.19813 716.1914 356.0201 719.15646 356.0201Z" fill="#ff0000" fill-opacity=".6"/>
<path transform="matrix(1,0,0,-1,0,396)" stroke-width=".43817804" stroke-linecap="butt" stroke-linejoin="round" fill="none" stroke="#ffffff" stroke-opacity=".6" d="M719.15646 356.0201C722.1215 356.0201 724.9655 357.19813 727.06216 359.29475 729.15878 361.39137 730.3368 364.23539 730.3368 367.20045 730.3368 370.1655 729.15878 373.00953 727.06216 375.10615 724.9655 377.20277 722.1215 378.38078 719.15646 378.38078 716.1914 378.38078 713.34738 377.20277 711.25076 375.10615 709.1541 373.00953 707.97616 370.1655 707.97616 367.20045 707.97616 364.23539 709.1541 361.39137 711.25076 359.29475 713.34738 357.19813 716.1914 356.0201 719.15646 356.0201Z"/>
</g>
</g>
<path transform="matrix(1,0,0,-1,0,396)" stroke-width="1.25" stroke-linecap="square" stroke-miterlimit="10" stroke-linejoin="miter" fill="none" stroke="#ffffff" d="M51.21 48.06V379.55427"/>
<path transform="matrix(1,0,0,-1,0,396)" stroke-width="1.25" stroke-linecap="square" stroke-miterlimit="10" stroke-linejoin="miter" fill="none" stroke="#ffffff" d="M761.55258 48.06V379.55427"/>
<path transform="matrix(1,0,0,-1,0,396)" stroke-width="1.25" stroke-linecap="square" stroke-miterlimit="10" stroke-linejoin="miter" fill="none" stroke="#ffffff" d="M51.21 48.06H761.55258"/>
<path transform="matrix(1,0,0,-1,0,396)" stroke-width="1.25" stroke-linecap="square" stroke-miterlimit="10" stroke-linejoin="miter" fill="none" stroke="#ffffff" d="M51.21 379.55427H761.55258"/>
<use data-text="Y" xlink:href="#font_1_89" transform="matrix(9.996,0,0,-9.996,50.06053,319.26689)"/>
<use data-text="T" xlink:href="#font_1_84" transform="matrix(9.996,0,0,-9.996,56.168088,319.26689)"/>
<use data-text="(" xlink:href="#font_1_40" transform="matrix(9.996,0,0,-9.996,62.275644,319.26689)"/>
<use data-text="5" xlink:href="#font_1_53" transform="matrix(9.996,0,0,-9.996,66.17408,319.26689)"/>
<use data-text=")" xlink:href="#font_1_41" transform="matrix(9.996,0,0,-9.996,72.53154,319.26689)"/>
<use data-text="H" xlink:href="#font_1_72" transform="matrix(9.996,0,0,-9.996,53.11522,330.43876)"/>
<use data-text="2" xlink:href="#font_1_50" transform="matrix(9.996,0,0,-9.996,60.63221,330.43876)"/>
<use data-text="S" xlink:href="#font_1_83" transform="matrix(9.996,0,0,-9.996,66.98967,330.43876)"/>
<use data-text="Y" xlink:href="#font_1_89" transform="matrix(9.996,0,0,-9.996,55.58075,261.61573)"/>
<use data-text="T" xlink:href="#font_1_84" transform="matrix(9.996,0,0,-9.996,61.688306,261.61573)"/>
<use data-text="(" xlink:href="#font_1_40" transform="matrix(9.996,0,0,-9.996,67.79586,261.61573)"/>
<use data-text="5" xlink:href="#font_1_53" transform="matrix(9.996,0,0,-9.996,71.6943,261.61573)"/>
<use data-text=")" xlink:href="#font_1_41" transform="matrix(9.996,0,0,-9.996,78.05176,261.61573)"/>
<use data-text="Y" xlink:href="#font_1_89" transform="matrix(9.996,0,0,-9.996,62.651063,272.78758)"/>
<use data-text="T" xlink:href="#font_1_84" transform="matrix(9.996,0,0,-9.996,68.75862,272.78758)"/>
<use data-text="Y" xlink:href="#font_1_89" transform="matrix(9.996,0,0,-9.996,55.905469,74.24939)"/>
<use data-text="T" xlink:href="#font_1_84" transform="matrix(9.996,0,0,-9.996,62.013025,74.24939)"/>
<use data-text="(" xlink:href="#font_1_40" transform="matrix(9.996,0,0,-9.996,68.12058,74.24939)"/>
<use data-text="5" xlink:href="#font_1_53" transform="matrix(9.996,0,0,-9.996,72.01902,74.24939)"/>
<use data-text=")" xlink:href="#font_1_41" transform="matrix(9.996,0,0,-9.996,78.37648,74.24939)"/>
<use data-text="Y" xlink:href="#font_1_89" transform="matrix(9.996,0,0,-9.996,48.686719,85.421268)"/>
<use data-text="T" xlink:href="#font_1_84" transform="matrix(9.996,0,0,-9.996,54.794275,85.421268)"/>
<use data-text="H" xlink:href="#font_1_72" transform="matrix(9.996,0,0,-9.996,69.25023,85.421268)"/>
<use data-text="2" xlink:href="#font_1_50" transform="matrix(9.996,0,0,-9.996,76.76722,85.421268)"/>
<use data-text="S" xlink:href="#font_1_83" transform="matrix(9.996,0,0,-9.996,83.12468,85.421268)"/>
<g clip-path="url(#clip_19)">
<path transform="matrix(.009996,0,0,-.009996,60.88441,85.421268)" d="M789 335V292L597 100 539 158 652 272H57V355H652L539 469 597 527 789 335"/>
</g>
<use data-text="Y" xlink:href="#font_1_89" transform="matrix(9.996,0,0,-9.996,407.85295,127.78262)"/>
<use data-text="T" xlink:href="#font_1_84" transform="matrix(9.996,0,0,-9.996,413.96049,127.78262)"/>
<use data-text="(" xlink:href="#font_1_40" transform="matrix(9.996,0,0,-9.996,420.06803,127.78262)"/>
<use data-text="8" xlink:href="#font_1_56" transform="matrix(9.996,0,0,-9.996,423.96647,127.78262)"/>
<use data-text="0" xlink:href="#font_1_48" transform="matrix(9.996,0,0,-9.996,430.3239,127.78262)"/>
<use data-text="0" xlink:href="#font_1_48" transform="matrix(9.996,0,0,-9.996,436.68138,127.78262)"/>
<use data-text=")" xlink:href="#font_1_41" transform="matrix(9.996,0,0,-9.996,443.03883,127.78262)"/>
<use data-text="H" xlink:href="#font_1_72" transform="matrix(9.996,0,0,-9.996,417.267,138.9545)"/>
<use data-text="2" xlink:href="#font_1_50" transform="matrix(9.996,0,0,-9.996,424.784,138.9545)"/>
<use data-text="S" xlink:href="#font_1_83" transform="matrix(9.996,0,0,-9.996,431.14146,138.9545)"/>
<use data-text="Y" xlink:href="#font_1_89" transform="matrix(9.996,0,0,-9.996,411.79014,222.49526)"/>
<use data-text="T" xlink:href="#font_1_84" transform="matrix(9.996,0,0,-9.996,417.89768,222.49526)"/>
<use data-text="(" xlink:href="#font_1_40" transform="matrix(9.996,0,0,-9.996,424.00523,222.49526)"/>
<use data-text="8" xlink:href="#font_1_56" transform="matrix(9.996,0,0,-9.996,427.90367,222.49526)"/>
<use data-text="0" xlink:href="#font_1_48" transform="matrix(9.996,0,0,-9.996,434.2611,222.49526)"/>
<use data-text="0" xlink:href="#font_1_48" transform="matrix(9.996,0,0,-9.996,440.61857,222.49526)"/>
<use data-text=")" xlink:href="#font_1_41" transform="matrix(9.996,0,0,-9.996,446.976,222.49526)"/>
<use data-text="Y" xlink:href="#font_1_89" transform="matrix(9.996,0,0,-9.996,425.21983,233.66713)"/>
<use data-text="T" xlink:href="#font_1_84" transform="matrix(9.996,0,0,-9.996,431.32737,233.66713)"/>
<use data-text="Y" xlink:href="#font_1_89" transform="matrix(9.996,0,0,-9.996,412.58164,74.24939)"/>
<use data-text="T" xlink:href="#font_1_84" transform="matrix(9.996,0,0,-9.996,418.68919,74.24939)"/>
<use data-text="(" xlink:href="#font_1_40" transform="matrix(9.996,0,0,-9.996,424.79673,74.24939)"/>
<use data-text="8" xlink:href="#font_1_56" transform="matrix(9.996,0,0,-9.996,428.69517,74.24939)"/>
<use data-text="0" xlink:href="#font_1_48" transform="matrix(9.996,0,0,-9.996,435.0526,74.24939)"/>
<use data-text="0" xlink:href="#font_1_48" transform="matrix(9.996,0,0,-9.996,441.41007,74.24939)"/>
<use data-text=")" xlink:href="#font_1_41" transform="matrix(9.996,0,0,-9.996,447.76753,74.24939)"/>
<use data-text="Y" xlink:href="#font_1_89" transform="matrix(9.996,0,0,-9.996,411.72227,85.421268)"/>
<use data-text="T" xlink:href="#font_1_84" transform="matrix(9.996,0,0,-9.996,417.8298,85.421268)"/>
<use data-text="+" xlink:href="#font_1_43" transform="matrix(9.996,0,0,-9.996,423.93736,85.421268)"/>
<use data-text="H" xlink:href="#font_1_72" transform="matrix(9.996,0,0,-9.996,432.314,85.421268)"/>
<use data-text="2" xlink:href="#font_1_50" transform="matrix(9.996,0,0,-9.996,439.831,85.421268)"/>
<use data-text="S" xlink:href="#font_1_83" transform="matrix(9.996,0,0,-9.996,446.18846,85.421268)"/>
<use data-text="Y" xlink:href="#font_1_89" transform="matrix(9.996,0,0,-9.996,412.58164,22.775116)"/>
<use data-text="T" xlink:href="#font_1_84" transform="matrix(9.996,0,0,-9.996,418.68919,22.775116)"/>
<use data-text="(" xlink:href="#font_1_40" transform="matrix(9.996,0,0,-9.996,424.79673,22.775116)"/>
<use data-text="8" xlink:href="#font_1_56" transform="matrix(9.996,0,0,-9.996,428.69517,22.775116)"/>
<use data-text="0" xlink:href="#font_1_48" transform="matrix(9.996,0,0,-9.996,435.0526,22.775116)"/>
<use data-text="0" xlink:href="#font_1_48" transform="matrix(9.996,0,0,-9.996,441.41007,22.775116)"/>
<use data-text=")" xlink:href="#font_1_41" transform="matrix(9.996,0,0,-9.996,447.76753,22.775116)"/>
<use data-text="Y" xlink:href="#font_1_89" transform="matrix(9.996,0,0,-9.996,411.72227,33.94699)"/>
<use data-text="T" xlink:href="#font_1_84" transform="matrix(9.996,0,0,-9.996,417.8298,33.94699)"/>
<use data-text="H" xlink:href="#font_1_72" transform="matrix(9.996,0,0,-9.996,432.28578,33.94699)"/>
<use data-text="2" xlink:href="#font_1_50" transform="matrix(9.996,0,0,-9.996,439.80278,33.94699)"/>
<use data-text="S" xlink:href="#font_1_83" transform="matrix(9.996,0,0,-9.996,446.16023,33.94699)"/>
<g clip-path="url(#clip_20)">
<path transform="matrix(.009996,0,0,-.009996,423.91996,33.94699)" d="M789 335V292L597 100 539 158 652 272H57V355H652L539 469 597 527 789 335"/>
</g>
<use data-text="Y" xlink:href="#font_1_89" transform="matrix(9.996,0,0,-9.996,73.28971,111.31085)"/>
<use data-text="T" xlink:href="#font_1_84" transform="matrix(9.996,0,0,-9.996,79.39727,111.31085)"/>
<use data-text="+" xlink:href="#font_1_43" transform="matrix(9.996,0,0,-9.996,85.50483,111.31085)"/>
<use data-text="H" xlink:href="#font_1_72" transform="matrix(9.996,0,0,-9.996,93.88148,111.31085)"/>
<use data-text="2" xlink:href="#font_1_50" transform="matrix(9.996,0,0,-9.996,101.39847,111.31085)"/>
<use data-text="S" xlink:href="#font_1_83" transform="matrix(9.996,0,0,-9.996,107.75593,111.31085)"/>
<use data-text="(" xlink:href="#font_1_40" transform="matrix(9.996,0,0,-9.996,114.103389,111.31085)"/>
<use data-text="1" xlink:href="#font_1_49" transform="matrix(9.996,0,0,-9.996,118.00182,111.31085)"/>
<use data-text="0" xlink:href="#font_1_48" transform="matrix(9.996,0,0,-9.996,124.35928,111.31085)"/>
<use data-text="0" xlink:href="#font_1_48" transform="matrix(9.996,0,0,-9.996,130.71674,111.31085)"/>
<use data-text=")" xlink:href="#font_1_41" transform="matrix(9.996,0,0,-9.996,137.07419,111.31085)"/>
<use data-text="Y" xlink:href="#font_1_89" transform="matrix(9.996,0,0,-9.996,86.7194,122.48273)"/>
<use data-text="T" xlink:href="#font_1_84" transform="matrix(9.996,0,0,-9.996,92.82696,122.48273)"/>
<use data-text="+" xlink:href="#font_1_43" transform="matrix(9.996,0,0,-9.996,98.93452,122.48273)"/>
<use data-text="H" xlink:href="#font_1_72" transform="matrix(9.996,0,0,-9.996,107.311168,122.48273)"/>
<use data-text="2" xlink:href="#font_1_50" transform="matrix(9.996,0,0,-9.996,114.828159,122.48273)"/>
<use data-text="S" xlink:href="#font_1_83" transform="matrix(9.996,0,0,-9.996,121.185619,122.48273)"/>
<use data-text="Y" xlink:href="#font_1_89" transform="matrix(9.996,0,0,-9.996,129.18193,58.189424)"/>
<use data-text="T" xlink:href="#font_1_84" transform="matrix(9.996,0,0,-9.996,135.28949,58.189424)"/>
<use data-text="+" xlink:href="#font_1_43" transform="matrix(9.996,0,0,-9.996,141.39705,58.189424)"/>
<use data-text="H" xlink:href="#font_1_72" transform="matrix(9.996,0,0,-9.996,149.7737,58.189424)"/>
<use data-text="2" xlink:href="#font_1_50" transform="matrix(9.996,0,0,-9.996,157.2907,58.189424)"/>
<use data-text="S" xlink:href="#font_1_83" transform="matrix(9.996,0,0,-9.996,163.64815,58.189424)"/>
<use data-text="(" xlink:href="#font_1_40" transform="matrix(9.996,0,0,-9.996,169.9956,58.189424)"/>
<use data-text="2" xlink:href="#font_1_50" transform="matrix(9.996,0,0,-9.996,173.89405,58.189424)"/>
<use data-text="0" xlink:href="#font_1_48" transform="matrix(9.996,0,0,-9.996,180.2515,58.189424)"/>
<use data-text="0" xlink:href="#font_1_48" transform="matrix(9.996,0,0,-9.996,186.60895,58.189424)"/>
<use data-text=")" xlink:href="#font_1_41" transform="matrix(9.996,0,0,-9.996,192.9664,58.189424)"/>
<use data-text="Y" xlink:href="#font_1_89" transform="matrix(9.996,0,0,-9.996,142.61162,69.3613)"/>
<use data-text="T" xlink:href="#font_1_84" transform="matrix(9.996,0,0,-9.996,148.71918,69.3613)"/>
<use data-text="+" xlink:href="#font_1_43" transform="matrix(9.996,0,0,-9.996,154.82674,69.3613)"/>
<use data-text="H" xlink:href="#font_1_72" transform="matrix(9.996,0,0,-9.996,163.20339,69.3613)"/>
<use data-text="2" xlink:href="#font_1_50" transform="matrix(9.996,0,0,-9.996,170.72039,69.3613)"/>
<use data-text="S" xlink:href="#font_1_83" transform="matrix(9.996,0,0,-9.996,177.07784,69.3613)"/>
<use data-text="Y" xlink:href="#font_1_89" transform="matrix(9.996,0,0,-9.996,240.96636,94.42728)"/>
<use data-text="T" xlink:href="#font_1_84" transform="matrix(9.996,0,0,-9.996,247.07392,94.42728)"/>
<use data-text="+" xlink:href="#font_1_43" transform="matrix(9.996,0,0,-9.996,253.18148,94.42728)"/>
<use data-text="H" xlink:href="#font_1_72" transform="matrix(9.996,0,0,-9.996,261.55815,94.42728)"/>
<use data-text="2" xlink:href="#font_1_50" transform="matrix(9.996,0,0,-9.996,269.07514,94.42728)"/>
<use data-text="S" xlink:href="#font_1_83" transform="matrix(9.996,0,0,-9.996,275.4326,94.42728)"/>
<use data-text="(" xlink:href="#font_1_40" transform="matrix(9.996,0,0,-9.996,281.78007,94.42728)"/>
<use data-text="4" xlink:href="#font_1_52" transform="matrix(9.996,0,0,-9.996,285.6785,94.42728)"/>
<use data-text="0" xlink:href="#font_1_48" transform="matrix(9.996,0,0,-9.996,292.03596,94.42728)"/>
<use data-text="0" xlink:href="#font_1_48" transform="matrix(9.996,0,0,-9.996,298.3934,94.42728)"/>
<use data-text=")" xlink:href="#font_1_41" transform="matrix(9.996,0,0,-9.996,304.75086,94.42728)"/>
<use data-text="Y" xlink:href="#font_1_89" transform="matrix(9.996,0,0,-9.996,254.39604,105.59915)"/>
<use data-text="T" xlink:href="#font_1_84" transform="matrix(9.996,0,0,-9.996,260.5036,105.59915)"/>
<use data-text="+" xlink:href="#font_1_43" transform="matrix(9.996,0,0,-9.996,266.61116,105.59915)"/>
<use data-text="H" xlink:href="#font_1_72" transform="matrix(9.996,0,0,-9.996,274.9878,105.59915)"/>
<use data-text="2" xlink:href="#font_1_50" transform="matrix(9.996,0,0,-9.996,282.5048,105.59915)"/>
<use data-text="S" xlink:href="#font_1_83" transform="matrix(9.996,0,0,-9.996,288.86225,105.59915)"/>
<use data-text="Y" xlink:href="#font_1_89" transform="matrix(9.996,0,0,-9.996,464.53523,73.837589)"/>
<use data-text="T" xlink:href="#font_1_84" transform="matrix(9.996,0,0,-9.996,470.64277,73.837589)"/>
<use data-text="+" xlink:href="#font_1_43" transform="matrix(9.996,0,0,-9.996,476.7503,73.837589)"/>
<use data-text="H" xlink:href="#font_1_72" transform="matrix(9.996,0,0,-9.996,485.12696,73.837589)"/>
<use data-text="2" xlink:href="#font_1_50" transform="matrix(9.996,0,0,-9.996,492.64396,73.837589)"/>
<use data-text="S" xlink:href="#font_1_83" transform="matrix(9.996,0,0,-9.996,499.0014,73.837589)"/>
<use data-text="(" xlink:href="#font_1_40" transform="matrix(9.996,0,0,-9.996,505.34889,73.837589)"/>
<use data-text="8" xlink:href="#font_1_56" transform="matrix(9.996,0,0,-9.996,509.2473,73.837589)"/>
<use data-text="0" xlink:href="#font_1_48" transform="matrix(9.996,0,0,-9.996,515.6048,73.837589)"/>
<use data-text="0" xlink:href="#font_1_48" transform="matrix(9.996,0,0,-9.996,521.9623,73.837589)"/>
<use data-text=")" xlink:href="#font_1_41" transform="matrix(9.996,0,0,-9.996,528.31979,73.837589)"/>
<use data-text="Y" xlink:href="#font_1_89" transform="matrix(9.996,0,0,-9.996,477.9649,85.00946)"/>
<use data-text="T" xlink:href="#font_1_84" transform="matrix(9.996,0,0,-9.996,484.07246,85.00946)"/>
<use data-text="+" xlink:href="#font_1_43" transform="matrix(9.996,0,0,-9.996,490.18,85.00946)"/>
<use data-text="H" xlink:href="#font_1_72" transform="matrix(9.996,0,0,-9.996,498.55665,85.00946)"/>
<use data-text="2" xlink:href="#font_1_50" transform="matrix(9.996,0,0,-9.996,506.07365,85.00946)"/>
<use data-text="S" xlink:href="#font_1_83" transform="matrix(9.996,0,0,-9.996,512.4311,85.00946)"/>
<use data-text="Y" xlink:href="#font_1_89" transform="matrix(9.996,0,0,-9.996,671.6252,49.541719)"/>
<use data-text="T" xlink:href="#font_1_84" transform="matrix(9.996,0,0,-9.996,677.7327,49.541719)"/>
<use data-text="+" xlink:href="#font_1_43" transform="matrix(9.996,0,0,-9.996,683.8403,49.541719)"/>
<use data-text="H" xlink:href="#font_1_72" transform="matrix(9.996,0,0,-9.996,692.2169,49.541719)"/>
<use data-text="2" xlink:href="#font_1_50" transform="matrix(9.996,0,0,-9.996,699.73397,49.541719)"/>
<use data-text="S" xlink:href="#font_1_83" transform="matrix(9.996,0,0,-9.996,706.0914,49.541719)"/>
<use data-text="(" xlink:href="#font_1_40" transform="matrix(9.996,0,0,-9.996,712.43887,49.541719)"/>
<use data-text="6" xlink:href="#font_1_54" transform="matrix(9.996,0,0,-9.996,716.3373,49.541719)"/>
<use data-text="0" xlink:href="#font_1_48" transform="matrix(9.996,0,0,-9.996,722.69479,49.541719)"/>
<use data-text="0" xlink:href="#font_1_48" transform="matrix(9.996,0,0,-9.996,729.0522,49.541719)"/>
<use data-text="2" xlink:href="#font_1_50" transform="matrix(9.996,0,0,-9.996,743.7047,49.541719)"/>
<use data-text="0" xlink:href="#font_1_48" transform="matrix(9.996,0,0,-9.996,750.0622,49.541719)"/>
<use data-text="0" xlink:href="#font_1_48" transform="matrix(9.996,0,0,-9.996,756.4196,49.541719)"/>
<use data-text=")" xlink:href="#font_1_41" transform="matrix(9.996,0,0,-9.996,762.7771,49.541719)"/>
<g clip-path="url(#clip_21)">
<path transform="matrix(.009996,0,0,-.009996,735.33889,49.541719)" d="M789 335V292L597 100 539 158 652 272H57V355H652L539 469 597 527 789 335"/>
</g>
<use data-text="Y" xlink:href="#font_1_89" transform="matrix(9.996,0,0,-9.996,698.7736,60.713594)"/>
<use data-text="T" xlink:href="#font_1_84" transform="matrix(9.996,0,0,-9.996,704.88119,60.713594)"/>
<use data-text="+" xlink:href="#font_1_43" transform="matrix(9.996,0,0,-9.996,710.9887,60.713594)"/>
<use data-text="H" xlink:href="#font_1_72" transform="matrix(9.996,0,0,-9.996,719.36538,60.713594)"/>
<use data-text="2" xlink:href="#font_1_50" transform="matrix(9.996,0,0,-9.996,726.8823,60.713594)"/>
<use data-text="S" xlink:href="#font_1_83" transform="matrix(9.996,0,0,-9.996,733.2398,60.713594)"/>
<g>
<path transform="matrix(1,0,0,-1,0,396)" d="M615.59 53.56H753.85256C755.3192 53.56 756.05258 54.29333 756.05258 55.76V214.785C756.05258 216.25167 755.3192 216.985 753.85256 216.985H615.59C614.12338 216.985 613.39 216.25167 613.39 214.785V55.76C613.39 54.29333 614.12338 53.56 615.59 53.56Z" fill="#eaeaf2" fill-opacity=".8"/>
<path transform="matrix(1,0,0,-1,0,396)" stroke-width="1" stroke-linecap="butt" stroke-miterlimit="10" stroke-linejoin="miter" fill="none" stroke="#cccccc" stroke-opacity=".8" d="M615.59 53.56H753.85256C755.3192 53.56 756.05258 54.29333 756.05258 55.76V214.785C756.05258 216.25167 755.3192 216.985 753.85256 216.985H615.59C614.12338 216.985 613.39 216.25167 613.39 214.785V55.76C613.39 54.29333 614.12338 53.56 615.59 53.56Z"/>
</g>
<use data-text="T" xlink:href="#font_1_84" transform="matrix(15,0,0,-15,626.59,194.80562)" fill="#262626"/>
<use data-text="y" xlink:href="#font_1_121" transform="matrix(15,0,0,-15,635.755,194.80562)" fill="#262626"/>
<use data-text="p" xlink:href="#font_1_112" transform="matrix(15,0,0,-15,644.635,194.80562)" fill="#262626"/>
<use data-text="e" xlink:href="#font_1_101" transform="matrix(15,0,0,-15,654.16006,194.80562)" fill="#262626"/>
<use data-text=" " xlink:href="#font_1_32" transform="matrix(15,0,0,-15,663.385,194.80562)" fill="#262626"/>
<use data-text="o" xlink:href="#font_1_111" transform="matrix(15,0,0,-15,668.155,194.80562)" fill="#262626"/>
<use data-text="f" xlink:href="#font_1_102" transform="matrix(15,0,0,-15,677.335,194.80562)" fill="#262626"/>
<use data-text=" " xlink:href="#font_1_32" transform="matrix(15,0,0,-15,682.61508,194.80562)" fill="#262626"/>
<use data-text="m" xlink:href="#font_1_109" transform="matrix(15,0,0,-15,687.3851,194.80562)" fill="#262626"/>
<use data-text="o" xlink:href="#font_1_111" transform="matrix(15,0,0,-15,701.99508,194.80562)" fill="#262626"/>
<use data-text="d" xlink:href="#font_1_100" transform="matrix(15,0,0,-15,711.17507,194.80562)" fill="#262626"/>
<use data-text="e" xlink:href="#font_1_101" transform="matrix(15,0,0,-15,720.7001,194.80562)" fill="#262626"/>
<use data-text="l" xlink:href="#font_1_108" transform="matrix(15,0,0,-15,729.92507,194.80562)" fill="#262626"/>
<use data-text="s" xlink:href="#font_1_115" transform="matrix(15,0,0,-15,734.09506,194.80562)" fill="#262626"/>
<path transform="matrix(1,0,0,-1,0,396)" d="M628.79006 181.06626C629.58566 181.06626 630.34878 181.38236 630.9114 181.94493 631.47396 182.5075 631.79006 183.27065 631.79006 184.06626 631.79006 184.86186 631.47396 185.62499 630.9114 186.18758 630.34878 186.75016 629.58566 187.06626 628.79006 187.06626 627.99447 187.06626 627.2313 186.75016 626.6687 186.18758 626.10617 185.62499 625.79006 184.86186 625.79006 184.06626 625.79006 183.27065 626.10617 182.5075 626.6687 181.94493 627.2313 181.38236 627.99447 181.06626 628.79006 181.06626Z" fill="#0000ff"/>
<path transform="matrix(1,0,0,-1,0,396)" stroke-width="1" stroke-linecap="butt" stroke-linejoin="round" fill="none" stroke="#0000ff" d="M628.79006 181.06626C629.58566 181.06626 630.34878 181.38236 630.9114 181.94493 631.47396 182.5075 631.79006 183.27065 631.79006 184.06626 631.79006 184.86186 631.47396 185.62499 630.9114 186.18758 630.34878 186.75016 629.58566 187.06626 628.79006 187.06626 627.99447 187.06626 627.2313 186.75016 626.6687 186.18758 626.10617 185.62499 625.79006 184.86186 625.79006 184.06626 625.79006 183.27065 626.10617 182.5075 626.6687 181.94493 627.2313 181.38236 627.99447 181.06626 628.79006 181.06626Z"/>
<use data-text="O" xlink:href="#font_1_79" transform="matrix(15,0,0,-15,648.59,214.82125)" fill="#262626"/>
<use data-text="u" xlink:href="#font_1_117" transform="matrix(15,0,0,-15,660.395,214.82125)" fill="#262626"/>
<use data-text="r" xlink:href="#font_1_114" transform="matrix(15,0,0,-15,669.905,214.82125)" fill="#262626"/>
<use data-text="s" xlink:href="#font_1_115" transform="matrix(15,0,0,-15,676.07,214.82125)" fill="#262626"/>
<path transform="matrix(1,0,0,-1,0,396)" d="M628.79006 161.05063C629.58566 161.05063 630.34878 161.36673 630.9114 161.9293 631.47396 162.49188 631.79006 163.25502 631.79006 164.05063 631.79006 164.84624 631.47396 165.60936 630.9114 166.17195 630.34878 166.73453 629.58566 167.05063 628.79006 167.05063 627.99447 167.05063 627.2313 166.73453 626.6687 166.17195 626.10617 165.60936 625.79006 164.84624 625.79006 164.05063 625.79006 163.25502 626.10617 162.49188 626.6687 161.9293 627.2313 161.36673 627.99447 161.05063 628.79006 161.05063Z" fill="#ffa500"/>
<path transform="matrix(1,0,0,-1,0,396)" stroke-width="1" stroke-linecap="butt" stroke-linejoin="round" fill="none" stroke="#ffa500" d="M628.79006 161.05063C629.58566 161.05063 630.34878 161.36673 630.9114 161.9293 631.47396 162.49188 631.79006 163.25502 631.79006 164.05063 631.79006 164.84624 631.47396 165.60936 630.9114 166.17195 630.34878 166.73453 629.58566 167.05063 628.79006 167.05063 627.99447 167.05063 627.2313 166.73453 626.6687 166.17195 626.10617 165.60936 625.79006 164.84624 625.79006 164.05063 625.79006 163.25502 626.10617 162.49188 626.6687 161.9293 627.2313 161.36673 627.99447 161.05063 628.79006 161.05063Z"/>
<use data-text="S" xlink:href="#font_1_83" transform="matrix(15,0,0,-15,648.59,234.83687)" fill="#262626"/>
<use data-text="S" xlink:href="#font_1_83" transform="matrix(15,0,0,-15,658.11508,234.83687)" fill="#262626"/>
<use data-text="V" xlink:href="#font_1_86" transform="matrix(15,0,0,-15,667.6401,234.83687)" fill="#262626"/>
<use data-text="P" xlink:href="#font_1_80" transform="matrix(15,0,0,-15,677.9001,234.83687)" fill="#262626"/>
<use data-text="-" xlink:href="#font_1_45" transform="matrix(15,0,0,-15,686.94509,234.83687)" fill="#262626"/>
<use data-text="S" xlink:href="#font_1_83" transform="matrix(15,0,0,-15,692.36007,234.83687)" fill="#262626"/>
<use data-text="L" xlink:href="#font_1_76" transform="matrix(15,0,0,-15,701.8851,234.83687)" fill="#262626"/>
<use data-text="T" xlink:href="#font_1_84" transform="matrix(15,0,0,-15,710.24008,234.83687)" fill="#262626"/>
<path transform="matrix(1,0,0,-1,0,396)" d="M628.79006 141.035C629.58566 141.035 630.34878 141.3511 630.9114 141.91368 631.47396 142.47626 631.79006 143.2394 631.79006 144.035 631.79006 144.83061 631.47396 145.59374 630.9114 146.15633 630.34878 146.7189 629.58566 147.035 628.79006 147.035 627.99447 147.035 627.2313 146.7189 626.6687 146.15633 626.10617 145.59374 625.79006 144.83061 625.79006 144.035 625.79006 143.2394 626.10617 142.47626 626.6687 141.91368 627.2313 141.3511 627.99447 141.035 628.79006 141.035Z" fill="#ff0000"/>
<path transform="matrix(1,0,0,-1,0,396)" stroke-width="1" stroke-linecap="butt" stroke-linejoin="round" fill="none" stroke="#ff0000" d="M628.79006 141.035C629.58566 141.035 630.34878 141.3511 630.9114 141.91368 631.47396 142.47626 631.79006 143.2394 631.79006 144.035 631.79006 144.83061 631.47396 145.59374 630.9114 146.15633 630.34878 146.7189 629.58566 147.035 628.79006 147.035 627.99447 147.035 627.2313 146.7189 626.6687 146.15633 626.10617 145.59374 625.79006 144.83061 625.79006 144.035 625.79006 143.2394 626.10617 142.47626 626.6687 141.91368 627.2313 141.3511 627.99447 141.035 628.79006 141.035Z"/>
<use data-text="S" xlink:href="#font_1_83" transform="matrix(15,0,0,-15,648.59,254.8525)" fill="#262626"/>
<use data-text="S" xlink:href="#font_1_83" transform="matrix(15,0,0,-15,658.11508,254.8525)" fill="#262626"/>
<use data-text="V" xlink:href="#font_1_86" transform="matrix(15,0,0,-15,667.6401,254.8525)" fill="#262626"/>
<use data-text="P" xlink:href="#font_1_80" transform="matrix(15,0,0,-15,677.9001,254.8525)" fill="#262626"/>
<use data-text="-" xlink:href="#font_1_45" transform="matrix(15,0,0,-15,686.94509,254.8525)" fill="#262626"/>
<use data-text="S" xlink:href="#font_1_83" transform="matrix(15,0,0,-15,692.36007,254.8525)" fill="#262626"/>
<use data-text="L" xlink:href="#font_1_76" transform="matrix(15,0,0,-15,701.8851,254.8525)" fill="#262626"/>
<use data-text="T" xlink:href="#font_1_84" transform="matrix(15,0,0,-15,710.24008,254.8525)" fill="#262626"/>
<use data-text="-" xlink:href="#font_1_45" transform="matrix(15,0,0,-15,719.405,254.8525)" fill="#262626"/>
<use data-text="L" xlink:href="#font_1_76" transform="matrix(15,0,0,-15,724.82,254.8525)" fill="#262626"/>
<use data-text="S" xlink:href="#font_1_83" transform="matrix(15,0,0,-15,733.175,254.8525)" fill="#262626"/>
<use data-text="P" xlink:href="#font_1_80" transform="matrix(15,0,0,-15,742.7,254.8525)" fill="#262626"/>
<use data-text="N" xlink:href="#font_1_78" transform="matrix(15,0,0,-15,626.59,274.86814)" fill="#262626"/>
<use data-text="u" xlink:href="#font_1_117" transform="matrix(15,0,0,-15,637.81,274.86814)" fill="#262626"/>
<use data-text="m" xlink:href="#font_1_109" transform="matrix(15,0,0,-15,647.32,274.86814)" fill="#262626"/>
<use data-text="." xlink:href="#font_1_46" transform="matrix(15,0,0,-15,661.93,274.86814)" fill="#262626"/>
<use data-text=" " xlink:href="#font_1_32" transform="matrix(15,0,0,-15,666.7,274.86814)" fill="#262626"/>
<use data-text="f" xlink:href="#font_1_102" transform="matrix(15,0,0,-15,671.47006,274.86814)" fill="#262626"/>
<use data-text="r" xlink:href="#font_1_114" transform="matrix(15,0,0,-15,676.75009,274.86814)" fill="#262626"/>
<use data-text="a" xlink:href="#font_1_97" transform="matrix(15,0,0,-15,682.91506,274.86814)" fill="#262626"/>
<use data-text="m" xlink:href="#font_1_109" transform="matrix(15,0,0,-15,692.11007,274.86814)" fill="#262626"/>
<use data-text="e" xlink:href="#font_1_101" transform="matrix(15,0,0,-15,706.72006,274.86814)" fill="#262626"/>
<use data-text="s" xlink:href="#font_1_115" transform="matrix(15,0,0,-15,715.945,274.86814)" fill="#262626"/>
<path transform="matrix(1,0,0,-1,0,396)" d="M628.79006 101.26514C629.5163 101.26514 630.21298 101.553699 630.7265 102.06726 631.2401 102.580829 631.5286 103.27746 631.5286 104.00375 631.5286 104.73004 631.2401 105.42668 630.7265 105.94024 630.21298 106.453807 629.5163 106.74236 628.79006 106.74236 628.0637 106.74236 627.3671 106.453807 626.8535 105.94024 626.33999 105.42668 626.05148 104.73004 626.05148 104.00375 626.05148 103.27746 626.33999 102.580829 626.8535 102.06726 627.3671 101.553699 628.0637 101.26514 628.79006 101.26514Z" fill="#333333"/>
<path transform="matrix(1,0,0,-1,0,396)" stroke-width="1" stroke-linecap="butt" stroke-linejoin="round" fill="none" stroke="#333333" d="M628.79006 101.26514C629.5163 101.26514 630.21298 101.553699 630.7265 102.06726 631.2401 102.580829 631.5286 103.27746 631.5286 104.00375 631.5286 104.73004 631.2401 105.42668 630.7265 105.94024 630.21298 106.453807 629.5163 106.74236 628.79006 106.74236 628.0637 106.74236 627.3671 106.453807 626.8535 105.94024 626.33999 105.42668 626.05148 104.73004 626.05148 104.00375 626.05148 103.27746 626.33999 102.580829 626.8535 102.06726 627.3671 101.553699 628.0637 101.26514 628.79006 101.26514Z"/>
<use data-text="1" xlink:href="#font_1_49" transform="matrix(15,0,0,-15,648.59,294.88377)" fill="#262626"/>
<use data-text="." xlink:href="#font_1_46" transform="matrix(15,0,0,-15,658.13,294.88377)" fill="#262626"/>
<use data-text="0" xlink:href="#font_1_48" transform="matrix(15,0,0,-15,662.9,294.88377)" fill="#262626"/>
<path transform="matrix(1,0,0,-1,0,396)" d="M628.79006 73.22902C631.6434 73.22902 634.38027 74.36266 636.3979 76.38029 638.4155 78.39791 639.54916 81.13477 639.54916 83.98813 639.54916 86.84148 638.4155 89.57834 636.3979 91.59596 634.38027 93.61359 631.6434 94.74723 628.79006 94.74723 625.9367 94.74723 623.1998 93.61359 621.1822 91.59596 619.16458 89.57834 618.03097 86.84148 618.03097 83.98813 618.03097 81.13477 619.16458 78.39791 621.1822 76.38029 623.1998 74.36266 625.9367 73.22902 628.79006 73.22902Z" fill="#333333"/>
<path transform="matrix(1,0,0,-1,0,396)" stroke-width="1" stroke-linecap="butt" stroke-linejoin="round" fill="none" stroke="#333333" d="M628.79006 73.22902C631.6434 73.22902 634.38027 74.36266 636.3979 76.38029 638.4155 78.39791 639.54916 81.13477 639.54916 83.98813 639.54916 86.84148 638.4155 89.57834 636.3979 91.59596 634.38027 93.61359 631.6434 94.74723 628.79006 94.74723 625.9367 94.74723 623.1998 93.61359 621.1822 91.59596 619.16458 89.57834 618.03097 86.84148 618.03097 83.98813 618.03097 81.13477 619.16458 78.39791 621.1822 76.38029 623.1998 74.36266 625.9367 73.22902 628.79006 73.22902Z"/>
<use data-text="4" xlink:href="#font_1_52" transform="matrix(15,0,0,-15,648.59,314.89939)" fill="#262626"/>
<use data-text="2" xlink:href="#font_1_50" transform="matrix(15,0,0,-15,658.13,314.89939)" fill="#262626"/>
<use data-text="." xlink:href="#font_1_46" transform="matrix(15,0,0,-15,667.67,314.89939)" fill="#262626"/>
<use data-text="0" xlink:href="#font_1_48" transform="matrix(15,0,0,-15,672.44,314.89939)" fill="#262626"/>
<path transform="matrix(1,0,0,-1,0,396)" d="M628.79006 52.79216C631.7551 52.79216 634.5991 53.970193 636.69577 56.066808 638.79238 58.16342 639.9704 61.00744 639.9704 63.9725 639.9704 66.93756 638.79238 69.78158 636.69577 71.8782 634.5991 73.97481 631.7551 75.15284 628.79006 75.15284 625.82498 75.15284 622.98098 73.97481 620.88436 71.8782 618.7877 69.78158 617.6097 66.93756 617.6097 63.9725 617.6097 61.00744 618.7877 58.16342 620.88436 56.066808 622.98098 53.970193 625.82498 52.79216 628.79006 52.79216Z" fill="#333333"/>
<path transform="matrix(1,0,0,-1,0,396)" stroke-width="1" stroke-linecap="butt" stroke-linejoin="round" fill="none" stroke="#333333" d="M628.79006 52.79216C631.7551 52.79216 634.5991 53.970193 636.69577 56.066808 638.79238 58.16342 639.9704 61.00744 639.9704 63.9725 639.9704 66.93756 638.79238 69.78158 636.69577 71.8782 634.5991 73.97481 631.7551 75.15284 628.79006 75.15284 625.82498 75.15284 622.98098 73.97481 620.88436 71.8782 618.7877 69.78158 617.6097 66.93756 617.6097 63.9725 617.6097 61.00744 618.7877 58.16342 620.88436 56.066808 622.98098 53.970193 625.82498 52.79216 628.79006 52.79216Z"/>
<use data-text="4" xlink:href="#font_1_52" transform="matrix(15,0,0,-15,648.59,334.915)" fill="#262626"/>
<use data-text="5" xlink:href="#font_1_53" transform="matrix(15,0,0,-15,658.13,334.915)" fill="#262626"/>
<use data-text="." xlink:href="#font_1_46" transform="matrix(15,0,0,-15,667.67,334.915)" fill="#262626"/>
<use data-text="5" xlink:href="#font_1_53" transform="matrix(15,0,0,-15,672.44,334.915)" fill="#262626"/>
</g>
</svg>
